<svg id="レイヤー_2" data-name="レイヤー 2" xmlns="http://www.w3.org/2000/svg" viewBox="0 0 600 600"><defs><style>.cls-1{fill:none;stroke:#000;stroke-miterlimit:10;stroke-width:4px;}</style></defs><path class="cls-1" d="M534.19,100.51l-46.69,398s-97-56.39-187.5,8.3c0,0-100.5-71.3-196.5-22.3,0,0-26.07-325.46-39.65-383.31C62.62,96,61.5,92.91,60.5,92.5c-3.33-1.39,113-50,230,26l9.5,6.8S419.5,45.5,522.5,89.5"/><path class="cls-1" d="M290.87,506.8a165.41,165.41,0,0,0-59.94-24.86c-29.23-6-53.58-3.72-63.93-4.94-17-2-70,25-70,25l-7-10S80,392,81,388s-7-69-8.27-73.5S64,236,65,222,38,113,38,113c5-9,21-13,21-13"/><path class="cls-1" d="M42,126.73,27,135S62.86,240.62,60.43,256.31s-1.33,76.14.12,81.41S74,394,74,403s7.6,112,12.3,111S146,489,159,487l39.56-6.1"/><path class="cls-1" d="M555,130.42h17.5L555,249s-8,109-12,113-28,124-28,124l-16,44s-78-36-96-35-62,4-68,7-35,4.8-35,4.8S372,476,421,491s64,23,64,23h9.4s37.21-187,33.4-199.5S550,230,548,204s7-89,7-89l-20.81-4.81"/><path class="cls-1" d="M38,118.34,11,145c25,10,41,133,41,133s5,79,8.43,83.84S78.72,530,78.72,530C102.44,507,131,509,192,496s94.51,27,94.51,27H318s15-22,72-20,107,39,107,39,25.38-20.22,37.19-66.61S563,364,563,364s15-92,16-109-1-79.3,0-85.15S586,133,586,131s-31.71-10.43-31.86-9.71"/><path d="M198.89,482.32a104.72,104.72,0,0,1,17.87-.86c1.93.07,1.93-2.93,0-3a108.85,108.85,0,0,0-18.66,1,1.5,1.5,0,0,0-1,1.84,1.54,1.54,0,0,0,1.84,1.05Z"/><path d="M217.06,481.51l4.06.17a1.5,1.5,0,0,0,0-3l-4.06-.17a1.51,1.51,0,0,0-1.5,1.5,1.54,1.54,0,0,0,1.5,1.5Z"/><path d="M290.58,508.26a22.69,22.69,0,0,0,11.54.28,1.5,1.5,0,1,0-.79-2.89,19.52,19.52,0,0,1-9.95-.29,1.5,1.5,0,0,0-.8,2.9Z"/><path d="M302.58,508.31l1.44-.2a1.26,1.26,0,0,0,.51-.27,1.18,1.18,0,0,0,.38-.42,1.12,1.12,0,0,0,.18-.56,1,1,0,0,0,0-.6l-.15-.36a1.5,1.5,0,0,0-.53-.53l-.36-.16a1.55,1.55,0,0,0-.8,0l-1.43.21a1.14,1.14,0,0,0-.51.27,1.21,1.21,0,0,0-.39.42,1.12,1.12,0,0,0-.18.56,1.22,1.22,0,0,0,0,.6l.15.36a1.45,1.45,0,0,0,.54.53l.36.15a1.33,1.33,0,0,0,.79,0Z"/><path d="M298.37,129.37l1.81,46.55c.08,1.93,3.08,1.94,3,0l-1.81-46.55c-.07-1.93-3.07-1.94-3,0Z"/><path d="M303.77,205l-.59,77.42-.6,77.42-.33,43.45a1.5,1.5,0,0,0,3,0l.59-77.42.6-77.42.33-43.45a1.5,1.5,0,0,0-3,0Z"/><path d="M300.47,442l-2.12,62.47c-.07,1.93,2.93,1.93,3,0L303.47,442c.07-1.93-2.93-1.93-3,0Z"/><path d="M121.37,188.67a79.71,79.71,0,0,0,7.22-35.11h-3a80,80,0,0,0,1.86,14.71c.83,3.48,3.12,7.19,7.26,6.35,4.62-.94,6.1-6.35,7.6-10.13q2.83-7.12,5.36-14.36c.56-1.58-2.07-2.73-2.74-1.16-1.68,3.91-3.45,8-3.32,12.36.11,3.46,1.39,7,4.21,9.19,4.72,3.59,12.47,1.8,15-3.57.82-1.74-1.76-3.26-2.59-1.52-1.83,3.84-7.49,5.37-10.85,2.54-2.12-1.78-2.86-4.74-2.8-7.4.08-3.53,1.54-6.89,2.91-10.08l-2.74-1.16q-2.06,5.88-4.31,11.69c-.75,1.93-1.51,3.87-2.31,5.79-.69,1.66-1.48,3.63-3.16,4.53-3.4,1.82-4.48-2.87-4.93-5.21a85.54,85.54,0,0,1-1.48-12.57c-.08-1.92-3-1.94-3,0a76.27,76.27,0,0,1-6.81,33.6c-.8,1.74,1.78,3.27,2.59,1.51Z"/><path d="M163.61,163.53a4.71,4.71,0,0,0,9.17-.44,5.66,5.66,0,0,0-2.42-5.88,7,7,0,0,0-6.73-.37c-4.14,1.91-5.81,6.93-4.86,11.15a9.67,9.67,0,0,0,8.44,7.75c4.4.33,9.15-2.81,9.88-7.3A1.55,1.55,0,0,0,176,166.6a1.5,1.5,0,0,0-1.84,1.05,6.32,6.32,0,0,1-5.14,5,6.06,6.06,0,0,1-6.43-3,7.68,7.68,0,0,1-.19-7.74,5.37,5.37,0,0,1,3.66-2.75,3.59,3.59,0,0,1,3.36,1.22,2.46,2.46,0,0,1-.44,3.37,1.75,1.75,0,0,1-2.51-1c-.42-1.88-3.31-1.09-2.9.8Z"/><path d="M178.69,159.26c-1.34,3.69-2.53,7.77-.57,11.48a6.22,6.22,0,0,0,8.15,2.91,5.12,5.12,0,0,0,2.69-3.48c.22-.81.17-2.85,1-3.3.65-.36,2.34.81,2.87,1.08l3,1.54,6.54,3.29c1.71.87,3.24-1.72,1.51-2.59-3.75-1.89-7.45-3.9-11.26-5.67-1.47-.69-3.13-1.05-4.54,0a5.41,5.41,0,0,0-1.76,3.52c-.23,1.16-.32,2.49-1.56,3a3.06,3.06,0,0,1-3.41-.84c-2.55-2.81-.9-7.09.2-10.14.66-1.81-2.23-2.6-2.89-.8Z"/><path d="M209.66,167.48a9.81,9.81,0,0,0,18.57-4.14l-2.56,1.06a39.27,39.27,0,0,0,28.05,10.71c1.93-.06,1.94-3.06,0-3a36.23,36.23,0,0,1-25.93-9.83,1.52,1.52,0,0,0-2.56,1.06,6.81,6.81,0,0,1-13,2.63c-.88-1.72-3.47-.2-2.59,1.51Z"/><path d="M144.12,242.19l50.17-6.73,14.26-1.91-.75-2.79-20.66,10.07c-1.73.84-.22,3.43,1.51,2.59l20.66-10.07c1.28-.63.72-3-.76-2.8l-50.17,6.73-14.26,1.91a1.55,1.55,0,0,0-1.5,1.5,1.5,1.5,0,0,0,1.5,1.5Z"/><path d="M132.66,276.91q24.08-6,48.47-10.53t49.33-7.66q13.88-1.71,27.8-3c1.91-.18,1.92-3.18,0-3q-24.9,2.24-49.64,6t-49.27,8.95q-13.8,2.94-27.48,6.35c-1.88.47-1.08,3.36.79,2.89Z"/><path d="M130.87,320.23a318.51,318.51,0,0,1,77.25-18.67q11.24-1.26,22.54-1.71l-.75-2.8L204.13,310c-1.44.73-.6,2.69.76,2.8l43.75,3.61c1.93.16,1.92-2.84,0-3l-43.75-3.61.76,2.8,25.77-13a1.51,1.51,0,0,0-.76-2.79,321.84,321.84,0,0,0-79.18,13.23q-10.83,3.24-21.41,7.25c-1.79.68-1,3.58.8,2.9Z"/><path d="M134.21,388c17.16-5.61,34.35-11.19,51.79-15.91a348.59,348.59,0,0,1,52.87-10.52,231.59,231.59,0,0,1,30.25-1.41c1.93,0,1.93-3,0-3a257.21,257.21,0,0,0-53.81,5,499.08,499.08,0,0,0-52.59,13.58c-9.81,3-19.56,6.2-29.31,9.38-1.83.6-1,3.5.8,2.89Z"/><path d="M367.48,183.33a329.37,329.37,0,0,1,81.21-12.56q11.71-.33,23.44.18c1.93.08,1.93-2.92,0-3a332.75,332.75,0,0,0-82.69,6.84q-11.47,2.42-22.76,5.64a1.51,1.51,0,0,0,.8,2.9Z"/><path d="M339.67,227.64a507.25,507.25,0,0,1,112-16.13q15.9-.51,31.8,0c1.93.06,1.93-2.94,0-3a512.95,512.95,0,0,0-113.3,9.17q-15.74,3-31.25,7.09a1.5,1.5,0,0,0,.79,2.89Z"/><path d="M344.73,273.07,408,258l7.73-1.84c2.43-.57,5.08-1.26,7.53-.49,1.66.52,3.33,1.9,3.31,3.78,0,1.6-1.29,2.87-2.52,3.73a23.21,23.21,0,0,1-5.39,2.57l-7.7,2.87-15.17,5.64L361.53,287a1.51,1.51,0,0,0,.4,2.95l66.11-.11,18.89,0a1.5,1.5,0,0,0,0-3l-66.11.12-18.89,0,.4,2.94L395,277.75l16.33-6.08,8.4-3.12a27.08,27.08,0,0,0,5.59-2.6c3.22-2.13,5.72-6,3.36-9.79-2.78-4.42-8.32-4.14-12.78-3.12-11.28,2.58-22.53,5.36-33.79,8l-38.17,9.09c-1.88.45-1.09,3.34.79,2.9Z"/><path d="M328.66,340.78q25.17-6.64,50.88-11t51.75-6.21q14.74-1.07,29.51-1.37c1.93,0,1.94-3,0-3q-26.26.54-52.41,3.51t-51.78,8.34q-14.46,3-28.74,6.81a1.5,1.5,0,0,0,.79,2.89Z"/><path d="M358.6,381.74a38,38,0,0,1,18.63-4c6.77.27,12.71,2.75,18.86,5.39,12.47,5.34,25.78,6.7,39.25,6.14,7.6-.32,15.16-1.17,22.71-2,1.89-.22,1.92-3.22,0-3-13.64,1.58-27.51,3.14-41.22,1.46a71.39,71.39,0,0,1-19.66-5.34,101.06,101.06,0,0,0-9.49-3.82,40.2,40.2,0,0,0-9.6-1.75,41.27,41.27,0,0,0-21,4.37c-1.72.87-.21,3.46,1.52,2.59Z"/></svg>