<svg id="レイヤー_2" data-name="レイヤー 2" xmlns="http://www.w3.org/2000/svg" viewBox="0 0 600 600"><defs><style>.cls-1,.cls-2{fill:none;stroke:#000;stroke-miterlimit:10;}.cls-1{stroke-width:4px;}.cls-2{stroke-width:3px;}</style></defs><path d="M275.42,144.73a13.61,13.61,0,0,1,7.45-1.59,13.3,13.3,0,0,1,7.11,2.69,2.27,2.27,0,0,0,3.08-.8,2.3,2.3,0,0,0-.81-3.08,18,18,0,0,0-19.1-1.1,2.25,2.25,0,1,0,2.27,3.88Z"/><path d="M272.69,140.85c-6.83-7.79-21.26-13.92-30.05-5.75-4.75,4.4-4.34,11.64.21,16,4.1,3.95,10.55,5.39,16.11,5.25,6.08-.14,12.19-3.06,13.84-9.33.74-2.81-3.6-4-4.34-1.2-1,3.83-4.65,5.68-8.39,6-4.27.35-9.25-.44-12.84-2.89s-4.94-7.12-1.69-10.37c3.06-3,7.66-3.22,11.61-2.18A25.23,25.23,0,0,1,269.5,144c1.92,2.18,5.09-1,3.19-3.18Z"/><path d="M306.29,130.39a36,36,0,0,0-9.43,3.83c-2.52,1.49-5.23,3.36-6.58,6.06a7.78,7.78,0,0,0,1.1,8.64c2.05,2.51,5.22,3.58,8.22,4.47,6.16,1.82,13.19,3.45,19-.16,5.13-3.16,7.28-9.35,4.11-14.72-3.84-6.52-11.61-7.59-18.49-7.92-2.9-.13-2.89,4.37,0,4.5,4.57.22,9.85.51,13.27,4a7.15,7.15,0,0,1,2.28,5,6.36,6.36,0,0,1-2.59,4.69c-3.85,3.07-9.1,2.27-13.5,1.11a29.56,29.56,0,0,1-7.23-2.47c-1.63-1-3.19-2.72-2.39-4.72.88-2.23,3.44-3.68,5.4-4.8a31.41,31.41,0,0,1,8-3.16c2.8-.7,1.61-5-1.2-4.34Z"/><path d="M273.71,159.66c.74,2.78,0,5.59-.69,8.32a21,21,0,0,0-.65,8.71,9,9,0,0,0,4.36,6.4,7.17,7.17,0,0,0,7.37-.16,2.31,2.31,0,0,0,.8-3.08,2.27,2.27,0,0,0-3.08-.8,2.85,2.85,0,0,1-3.7-.48c-1.35-1.34-1.59-3.44-1.49-5.25a46.76,46.76,0,0,1,1.36-6.9,17.27,17.27,0,0,0,.06-8c-.75-2.8-5.09-1.61-4.34,1.2Z"/><path d="M278.75,94.82a17.06,17.06,0,0,0-3.69-8.67,12.82,12.82,0,0,0-8.8-4.36c-6.55-.64-12.9,3.22-16.68,8.34-1.91,2.57-3.26,5.72-4.8,8.53s-3.24,5.84-4.93,8.71A105.42,105.42,0,0,1,229,123a54.68,54.68,0,0,1-16.75,13.33c-2.59,1.3-.31,5.19,2.27,3.89,11.13-5.59,19.38-15,26-25.36,3.39-5.28,6.41-10.79,9.42-16.3,1.41-2.57,2.63-5.38,4.68-7.51a15.89,15.89,0,0,1,7.05-4.34c2.87-.81,6.28-.7,8.73,1.19S274,93,274.41,96a2.27,2.27,0,0,0,2.77,1.57,2.32,2.32,0,0,0,1.57-2.77Z"/><path d="M195.18,148.7a18.35,18.35,0,0,0,15.42,25.07,2.26,2.26,0,0,0,2.25-2.25,2.3,2.3,0,0,0-2.25-2.25,13.69,13.69,0,0,1-10.33-6.78,13.9,13.9,0,0,1-.75-12.6,2.26,2.26,0,0,0-1.57-2.76,2.3,2.3,0,0,0-2.77,1.57Z"/><path d="M214.54,148.46a25,25,0,0,0-4.15-4.68,2.48,2.48,0,0,0-1.59-.65,2.24,2.24,0,0,0-2.25,2.25,2.25,2.25,0,0,0,.66,1.59,19.74,19.74,0,0,1,3.07,3.26l-.35-.46q.38.48.72,1a1.61,1.61,0,0,0,.58.63,1.69,1.69,0,0,0,.77.41,2.25,2.25,0,0,0,2.76-1.57,2.2,2.2,0,0,0-.22-1.74Z"/><path d="M352.61,147.91c3.12-1.92,6.49-4,10.29-3.94a6.08,6.08,0,0,1,6,4.54c1.79,6.61-4.32,11.66-9.16,14.9-3.57,2.39-7.29,4.61-10.32,7.7-2,2.07,1.15,5.25,3.18,3.18,5.91-6,14.78-8.7,19.12-16.32,3.85-6.77,1.81-16.92-6.9-18.3-5.34-.85-10.1,1.64-14.52,4.36-2.46,1.51-.2,5.41,2.27,3.88Z"/><path d="M211.12,172.38c2.48,13.62,5.61,27.7,16.34,37.37A66.82,66.82,0,0,0,244,220.25c6.51,3.07,13.23,5.8,19.95,8.38a96.12,96.12,0,0,0,21.94,6,60,60,0,0,0,20.35-.91A60.65,60.65,0,0,0,340,213.53a61.9,61.9,0,0,0,14.27-41.63c-.11-2.89-4.61-2.9-4.5,0a57.54,57.54,0,0,1-10.62,35.42,56,56,0,0,1-30.17,21.07,56.67,56.67,0,0,1-18.41,2.14,74.9,74.9,0,0,1-21-4.64c-6.49-2.28-12.88-4.94-19.19-7.7a84.82,84.82,0,0,1-16.47-9A38.65,38.65,0,0,1,221.11,193c-3-6.94-4.3-14.48-5.65-21.86a2.27,2.27,0,0,0-2.77-1.57,2.31,2.31,0,0,0-1.57,2.77Z"/><path d="M197.28,137.73c-2.32-14.48.4-29.2,6.06-42.61,5.82-13.81,14.45-26.36,23.91-37.91a14.28,14.28,0,0,0,2.87-4.45,6.74,6.74,0,0,1,.3-.86s.28-.4.1-.21.29-.14.28-.14A9.23,9.23,0,0,0,233,49.62c2.29-2.61,4.41-5.4,7.34-7.34,5.75-3.8,12.68-3.93,19.06-1.72a80.21,80.21,0,0,1,9.9,4.62c1.7.86,3.41,1.7,5.17,2.45a21.9,21.9,0,0,0,6,1.95,12.32,12.32,0,0,0,5.79-.8A39.78,39.78,0,0,0,291.38,46a39,39,0,0,1,10.47-4c14.2-3.17,28.93,2.7,39.46,12.18,9.88,8.89,16,20.92,20.39,33.3a116.65,116.65,0,0,1,5.5,19.64c1.08,6.49,1.14,13.5-1.52,19.64a25,25,0,0,1-2.56,4.53,9.35,9.35,0,0,1-1.49,1.87,7.56,7.56,0,0,1-1.85.84,30.91,30.91,0,0,1-8.42,2A34.59,34.59,0,0,1,334,133.15c-5.38-2.45-10.84-6.41-13.49-11.83a47.35,47.35,0,0,1-3.14-9.88c-.78-3.3-1.62-6.6-2.35-9.91-1.38-6.32-6.34-12.11-12.71-13.78-6-1.55-12.7-1.71-18.44.68A20.62,20.62,0,0,0,276,94.19a2.31,2.31,0,0,0,0,3.18,2.29,2.29,0,0,0,3.19,0c4.22-5,10.28-6.63,16.64-6.15a18.85,18.85,0,0,1,8.51,2.32,13.85,13.85,0,0,1,5.59,6.66,39.92,39.92,0,0,1,1.32,4.82c.45,1.75.85,3.52,1.25,5.28a73.17,73.17,0,0,0,2.93,10.49,25,25,0,0,0,5.55,8.72,36.19,36.19,0,0,0,7.7,6,39.15,39.15,0,0,0,18.46,5.18,37.16,37.16,0,0,0,9.52-1,30.84,30.84,0,0,0,4.5-1.4q1.14-.45,2.25-1a6,6,0,0,0,2.16-1.84c9.74-12,7.23-27.81,3-41.49-4-13.18-9.3-26.26-18.23-36.93-9.48-11.31-23.49-19.63-38.43-20.38a42.86,42.86,0,0,0-22.42,5.2c-1.61.87-3.12,2.11-4.86,2.71a8.22,8.22,0,0,1-5.86,0,93.62,93.62,0,0,1-10.4-4.87c-6.81-3.45-13.94-6-21.69-4.73a22.9,22.9,0,0,0-9.41,4c-3.11,2.24-5.28,5.2-7.89,8-.6.63-1.36.94-2,1.53A6.52,6.52,0,0,0,226,50.92a7.09,7.09,0,0,1-.58,1.49,27.16,27.16,0,0,1-1.87,2.27c-2.53,3.11-5,6.27-7.35,9.5a158.54,158.54,0,0,0-12.43,19.64c-7.1,13.44-11.92,28.32-11.82,43.65a75.75,75.75,0,0,0,1,11.45,2.26,2.26,0,0,0,2.76,1.57,2.3,2.3,0,0,0,1.58-2.76Z"/><path d="M210.61,173.83l2.67.1a1.73,1.73,0,0,0,.87-.19,2.3,2.3,0,0,0,1.38-2.06,2.22,2.22,0,0,0-.66-1.59l-.45-.35a2.27,2.27,0,0,0-1.14-.31l-2.67-.1a1.73,1.73,0,0,0-.87.19,1.7,1.7,0,0,0-.72.47,1.62,1.62,0,0,0-.46.72,1.64,1.64,0,0,0-.2.87,2.29,2.29,0,0,0,.66,1.59l.46.35a2.16,2.16,0,0,0,1.13.31Z"/><path d="M348.94,173.33l.51,2a2.42,2.42,0,0,0,1,1.34,1.61,1.61,0,0,0,.84.27,1.62,1.62,0,0,0,.9,0l.53-.23a2.22,2.22,0,0,0,.81-.8l.23-.54a2.22,2.22,0,0,0,0-1.2l-.51-2a1.78,1.78,0,0,0-.4-.77,1.71,1.71,0,0,0-.64-.58,1.74,1.74,0,0,0-.83-.27,1.83,1.83,0,0,0-.9,0l-.54.23a2.3,2.3,0,0,0-.8.81l-.23.54a2.19,2.19,0,0,0,0,1.19Z"/><path d="M350.08,174.34l.09,2.11,1.47-.19-.45-1.85a.75.75,0,0,0-1.45.4l.45,1.84a.75.75,0,0,0,1.48-.2l-.09-2.11a.78.78,0,0,0-.75-.75.76.76,0,0,0-.75.75Z"/><path d="M199.12,150.57c.14-.23.28-.45.43-.67s.15-.18,0,0l.32-.37c.18-.2.37-.39.56-.57l.29-.26s.36-.28.16-.13l.17-.12.42-.27a7.87,7.87,0,0,1,.69-.38l.36-.17c-.2.09-.18.06,0,0a8.39,8.39,0,0,1,.85-.27c.27-.07.54-.12.82-.17s-.31,0,0,0l.43,0h.86l.53,0c-.23,0-.13,0,0,0a13.12,13.12,0,0,1,1.66.46c.38.14-.06,0,.16.07l.38.19a8.7,8.7,0,0,1,.83.5,2.26,2.26,0,0,0,3.08-.81,2.3,2.3,0,0,0-.81-3.07,11.4,11.4,0,0,0-16.17,3.77,2.25,2.25,0,0,0,3.88,2.27Z"/><path d="M279.6,192.55a16.05,16.05,0,0,0-12.6-9.69c-6.54-1.08-13.21.72-19.41,2.68-3.16,1-6.27,2.16-9.32,3.45-2.51,1.07-6.38,2.09-7.21,5.07s1.7,5.56,3.78,7.27a33.57,33.57,0,0,0,6.73,4.39,36.41,36.41,0,0,0,30.76.64c2.18-1,5.08-3.38,7.6-2.33a23.29,23.29,0,0,1,3.48,2.26,30.09,30.09,0,0,0,3.7,2,34.86,34.86,0,0,0,16.25,3.14c11.78-.63,25.91-8.07,26.77-21.18a2.26,2.26,0,0,0-2.85-2.17c-3.89,1.6-7.49-1.51-10.47-3.64a19.58,19.58,0,0,0-11.79-4c-9.15,0-16.59,5.7-23.45,11.1a2.25,2.25,0,0,0,0,3.18,2.29,2.29,0,0,0,3.18,0c6.28-4.94,13.47-10.5,21.95-9.72,4.08.38,7,2.85,10.24,5.07s7.59,4,11.53,2.38l-2.84-2.17c-.63,9.55-11.4,15.28-19.81,16.45a30.71,30.71,0,0,1-13.95-1.33,27.62,27.62,0,0,1-6.19-3c-2.32-1.5-4.45-3.29-7.4-3.11s-5.22,1.76-7.73,3a28.58,28.58,0,0,1-6.18,2.06,31.65,31.65,0,0,1-13.32,0,31.2,31.2,0,0,1-12.34-5.58,21.36,21.36,0,0,1-2.33-2,5.25,5.25,0,0,1-.86-1.18c-.17-.29,0-.55-.12-.25s0,0,.27-.15a65.09,65.09,0,0,1,7.81-3.39q4.59-1.74,9.34-3a41.08,41.08,0,0,1,9.45-1.66c5-.14,11,1.63,13,6.72a2.32,2.32,0,0,0,2.77,1.57,2.27,2.27,0,0,0,1.57-2.77Z"/><path d="M229.71,213.84a62.51,62.51,0,0,0,37.68,34.65c17.05,5.69,35.94,2.86,51-6.74A60.85,60.85,0,0,0,339,220.16c1.41-2.54-2.47-4.81-3.88-2.27a58,58,0,0,1-39,28.06c-16.09,3.22-33-1.46-45.63-11.78a56.17,56.17,0,0,1-16.43-21.53,2.33,2.33,0,0,0-2.77-1.57,2.26,2.26,0,0,0-1.57,2.77Z"/><path d="M225.55,212a59.73,59.73,0,0,0-14.89,14.52,53.83,53.83,0,0,0-5.19,8.82c-1.65,3.57-2.68,7.48-1,11.24,3.18,7.13,11.9,7.84,18.66,8.38a208.14,208.14,0,0,0,24.47.51,212.93,212.93,0,0,0,27.59-2.89,2.27,2.27,0,0,0,1.57-2.77,2.3,2.3,0,0,0-2.77-1.57,205,205,0,0,1-44.81,2.61c-3.65-.18-7.33-.38-11-.86-2.92-.38-6-1.11-8.2-3.23s-2.26-4.94-1.24-7.79a40.87,40.87,0,0,1,4.48-8.34,53.86,53.86,0,0,1,14.55-14.74c2.38-1.62.13-5.52-2.27-3.89Z"/><path d="M286.06,254.39a197.39,197.39,0,0,0,55.14.67c6.38-.84,13.53-2.41,18.1-7.32,5.18-5.56,4.83-13.68.88-19.84-4.94-7.7-13.89-10.82-22.17-13.52-2.76-.9-3.94,3.44-1.2,4.34,6.53,2.13,13.66,4.39,18.27,9.8,3.68,4.31,5.34,11.19,1.25,15.8-3.74,4.23-9.95,5.53-15.3,6.27a184.29,184.29,0,0,1-25.18,1.59,194.09,194.09,0,0,1-28.59-2.13,2.33,2.33,0,0,0-2.77,1.57,2.27,2.27,0,0,0,1.57,2.77Z"/><path d="M275.46,256.25a50,50,0,0,0,14.07,33.32c1.1,1.13,3.46.71,3.76-1l4.6-26.59h-4.34a7.83,7.83,0,0,0,3.09,5.15c.82.61,1.77,1,2.61,1.54-.07-.05.75.67.66.65s0,0,0,.05a1.41,1.41,0,0,1,.39-.49,2.32,2.32,0,0,0-.8,3.08,2.26,2.26,0,0,0,3.07.81,4.51,4.51,0,0,0,.2-7c-1-1-2.28-1.34-3.37-2.13a3.82,3.82,0,0,1-1.5-2.8c-.3-2.19-4-2.12-4.34,0L289,287.38l3.76-1A45.35,45.35,0,0,1,280,256.25c-.08-2.89-4.59-2.9-4.5,0Z"/><path d="M234.35,257.83a97.54,97.54,0,0,0,40,27.15,93.21,93.21,0,0,0,13.21,3.72c2.82.58,4-3.75,1.19-4.34A93,93,0,0,1,247,264a95.08,95.08,0,0,1-9.47-9.36c-1.91-2.18-5.08,1-3.18,3.18Z"/><path d="M297.73,289a91.73,91.73,0,0,0,31.94-32c1.47-2.5-2.42-4.77-3.89-2.28a86.85,86.85,0,0,1-30.32,30.42c-2.49,1.48-.23,5.38,2.27,3.89Z"/><path d="M213,221.85a44.37,44.37,0,0,0-22.95,4.88c-2.57,1.32-.3,5.21,2.27,3.89A39.86,39.86,0,0,1,213,226.35a2.25,2.25,0,0,0,0-4.5Z"/><path d="M189.54,229.65a229.62,229.62,0,0,0,7.1,25.48,176,176,0,0,0,9.64,23.5c3.59,7,8.48,13.12,15.52,16.83,7.27,3.82,15.59,5.4,23.59,6.91a231.34,231.34,0,0,0,54.08,3.89,227.76,227.76,0,0,0,26.83-2.9c4.28-.71,8.57-1.5,12.78-2.55a28.87,28.87,0,0,0,10.39-4.42c6.47-4.8,8.71-12.93,10.46-20.42a120.69,120.69,0,0,0,3.15-26.3c0-2.22,0-4.45-.13-6.66-.14-2.89-4.64-2.9-4.5,0a115.88,115.88,0,0,1-1.53,25.23,109.25,109.25,0,0,1-2.83,12.25,28.49,28.49,0,0,1-4.24,9.33c-4.51,5.95-12.91,7-19.74,8.31a219.62,219.62,0,0,1-25.8,3.35,225,225,0,0,1-51.72-2.39c-7.94-1.29-16.12-2.68-23.71-5.42a29.22,29.22,0,0,1-16.47-13.32c-4.13-6.67-7-14.2-9.69-21.52a226.68,226.68,0,0,1-7.4-24.16q-.76-3.1-1.44-6.22c-.62-2.82-5-1.63-4.34,1.2Z"/><path d="M363.35,229.1c-.27-2.6-.51-5.22-.82-7.82a9,9,0,0,0-1.06-3.77,7.41,7.41,0,0,0-2.39-2.4,9.51,9.51,0,0,0-6.54-1.16,21.39,21.39,0,0,0-6.84,2.8,2.26,2.26,0,0,0-.81,3.07,2.29,2.29,0,0,0,3.08.81,18.59,18.59,0,0,1,5.27-2.25,4.65,4.65,0,0,1,1-.09l.59,0c.62,0-.42-.11.19,0a7.54,7.54,0,0,1,1.13.3c.57.19-.35-.21.18.08l.5.28c.1.07.51.42.15.1.14.13.27.27.41.39.33.29-.12-.27.12.14.09.16.2.32.28.49-.17-.35.07.26.09.33.06.23.11.47.15.71.08.44,0-.11.05.37,0,.27.06.54.08.81l.71,6.77a2.3,2.3,0,0,0,2.25,2.25,2.27,2.27,0,0,0,2.25-2.25Z"/><path d="M186.25,226.78l-13.71,9-6.86,4.49a26.14,26.14,0,0,0-4,2.69,22.88,22.88,0,0,0-1.6,1.94q-5,6.06-10,12.17-8.31,10.2-16.51,20.48-10.11,12.66-20,25.45Q103,316.56,92.83,330.35c-6.17,8.36-12.23,16.8-18,25.43a213.57,213.57,0,0,0-12.49,20.45c-2.13,4.1-5,9.17-4.17,14,.75,4.64,4,8.51,7.57,11.35a58.44,58.44,0,0,0,14.49,8,133.42,133.42,0,0,0,25.42,7.25l1.5.27a2.31,2.31,0,0,0,2.77-1.57,2.26,2.26,0,0,0-1.57-2.77,135.24,135.24,0,0,1-19-4.68A81.79,81.79,0,0,1,74.56,402c-1.13-.62-2.24-1.27-3.31-2a32.72,32.72,0,0,1-2.69-1.93,25.77,25.77,0,0,1-2.6-2.41,11.71,11.71,0,0,1-1.75-2.23,13.58,13.58,0,0,1-.76-1.34c-.1-.2-.2-.4-.29-.6.2.45-.13-.37-.18-.51a13.55,13.55,0,0,1-.37-1.35c0-.1-.14-.8-.11-.54s0-.05,0-.11a8.7,8.7,0,0,1,0-1c0-.67-.06.23,0,0s.08-.44.13-.65a20.61,20.61,0,0,1,.87-2.9c.09-.25.19-.51.29-.76s.47-1.14.18-.46c.26-.6.53-1.2.8-1.8a156.23,156.23,0,0,1,11-18.94C81.22,354.11,87,346,92.78,338q9.78-13.46,20-26.62c6.45-8.41,13.17-17,19.87-25.43q8.63-10.86,17.36-21.62,5.79-7.14,11.63-14.22l2.79-3.38a6.57,6.57,0,0,1,.48-.57,40.24,40.24,0,0,1,3.72-2.4l6.85-4.5,13.09-8.59c2.41-1.58.16-5.48-2.27-3.88Z"/><path d="M163.11,250.2c11.14,18.79,23.58,40.1,18.82,62.85a39.53,39.53,0,0,1-6.87,15.57,2.26,2.26,0,0,0,.81,3.07,2.3,2.3,0,0,0,3.08-.8c6.59-8.89,9-20.25,8.38-31.16-.65-11.86-4.8-23.11-10.11-33.63-3.14-6.2-6.68-12.19-10.23-18.17-1.47-2.49-5.36-.23-3.88,2.27Z"/><path d="M361.3,219.86c4.19-1.35,8.64-2.88,13.1-2.33,3.29.41,6.56,2.07,8,5.21,1.57,3.52.92,7.78.64,11.48l-1.13,14.55-1.28,16.51a2.25,2.25,0,0,0,4.5,0l2.46-31.79c.35-4.45.64-9.08-1.39-13.2a13.76,13.76,0,0,0-9.72-6.95c-5.57-1.13-11.07.48-16.34,2.19-2.75.88-1.57,5.23,1.19,4.33Z"/><path d="M90.26,441.83l42.38-51.09,21-25.35q5.19-6.27,10.39-12.53a112.72,112.72,0,0,1,9.67-10.59c7.32-6.82,17.69-12.07,27.75-8.37a2.27,2.27,0,0,0,2.77-1.57,2.3,2.3,0,0,0-1.57-2.77c-9.16-3.37-19.43-.24-27,5.31-8.29,6.05-14.52,14.51-21,22.34l-43.18,52.05L87.08,438.65a2.3,2.3,0,0,0,0,3.18,2.26,2.26,0,0,0,3.18,0Z"/><path d="M220.64,340.46c5.33,2.39,13.35,5.91,14,12.65.24,2.52-.85,6-3.63,6.7-2.26.54-4.87-1.22-4.64-3.55l-4.42.6c1,3.05,2.14,6.19,1.94,9.46a7.26,7.26,0,0,1-3,5.68c-4.43,2.74-8.74-3.19-10.85-6.33a2.25,2.25,0,0,0-3.88,2.27c2.42,5.49,5.65,13,1.12,18.3-1.53,1.8-3.89,3-6.24,2.09a6,6,0,0,1-3.68-5.94l-4.42.6c.54,3.71-1.53,8.24-5.72,8.36a3.87,3.87,0,0,1-3.93-2.29,3.45,3.45,0,0,1,.7-3.83c2.1-2-1.08-5.17-3.19-3.18A7.89,7.89,0,0,0,179,390.5a8.33,8.33,0,0,0,7.46,5.34,10.17,10.17,0,0,0,8.7-4.22,13.13,13.13,0,0,0,2.07-9.83,2.22,2.22,0,0,0-2.47-1.61,2.29,2.29,0,0,0-1.95,2.21,10.37,10.37,0,0,0,5.81,9.79,9.78,9.78,0,0,0,10.84-1.79A14.35,14.35,0,0,0,214,380c.08-5.06-2-9.79-4-14.32l-3.88,2.27c3.56,5.3,9.73,12,16.71,8.12a11.37,11.37,0,0,0,5.34-8c.74-4.25-.54-8.43-1.89-12.42a2.26,2.26,0,0,0-4.42.6c-.35,3.52,2.29,6.42,5.4,7.6a8.27,8.27,0,0,0,9.22-2.47c5-5.91,2.27-14.14-3.12-18.69a43.3,43.3,0,0,0-10.47-6.13,2.32,2.32,0,0,0-3.08.81,2.28,2.28,0,0,0,.81,3.08Z"/><path d="M60.47,405.92C51,421.76,41.12,438.64,40.7,457.61A48.2,48.2,0,0,0,46,481.43a37.5,37.5,0,0,0,18,16.46c16.95,7.43,35.7,3.43,51.4-5.17a117.61,117.61,0,0,0,37.47-33.12,120.39,120.39,0,0,0,20.61-44.41c.46-2,.87-4,1.22-6a2.31,2.31,0,0,0-1.57-2.77,2.26,2.26,0,0,0-2.76,1.57,116.33,116.33,0,0,1-17.21,43.37,115.06,115.06,0,0,1-32.66,33.06c-14.09,9.32-31.39,16-48.37,11.6A35.27,35.27,0,0,1,53,483.91c-4.62-5.94-7-13.45-7.6-20.89-1.4-17.78,6.84-34.1,15.56-49q1.71-2.91,3.45-5.82c1.48-2.49-2.41-4.76-3.89-2.27Z"/><path d="M230.66,340.64a26.5,26.5,0,0,1,22.17,6.82c2.1,2,5.29-1.19,3.18-3.18a31.25,31.25,0,0,0-26.55-8,2.27,2.27,0,0,0-1.57,2.77,2.31,2.31,0,0,0,2.77,1.57Z"/><path d="M251.05,351.3l-12.83-2.23a2.31,2.31,0,0,0-2.77,1.57,2.29,2.29,0,0,0,1.58,2.77l12.83,2.23a2.25,2.25,0,0,0,1.19-4.34Z"/><path d="M250.46,339.17A14,14,0,0,0,224,331.48a2.32,2.32,0,0,0,.81,3.08,2.28,2.28,0,0,0,3.08-.8,9.89,9.89,0,0,1,11.24-5.27c4.58,1.27,7.37,6.09,6.83,10.68a2.27,2.27,0,0,0,2.25,2.25,2.31,2.31,0,0,0,2.25-2.25Z"/><path d="M180.39,392.58a9.19,9.19,0,0,0-9.66,4.41,9.08,9.08,0,0,0,1.66,10.64,9.62,9.62,0,0,0,10.28,1.67,18.3,18.3,0,0,0,8.66-7.58c2.32-3.68,4-7.86,7.16-10.9,2.1-2-1.08-5.18-3.18-3.18-3,2.86-4.82,6.58-6.86,10.12-1.75,3.05-3.88,6-7.3,7.32-2.82,1.08-6.15.32-6.87-3a4.39,4.39,0,0,1,4.92-5.19,2.3,2.3,0,0,0,2.76-1.57,2.25,2.25,0,0,0-1.57-2.76Z"/><path d="M257,345.47a382.82,382.82,0,0,0-41,39.22,388,388,0,0,0-34.65,44.6q-8.88,13.33-16.61,27.38c-1.4,2.53,2.49,4.81,3.89,2.27a379.32,379.32,0,0,1,68-89.22q11.32-11,23.54-21.07a2.26,2.26,0,0,0,0-3.18,2.29,2.29,0,0,0-3.18,0Z"/><path d="M167.71,465.1a92.86,92.86,0,0,0,61.06,30.47,2.27,2.27,0,0,0,2.25-2.25,2.29,2.29,0,0,0-2.25-2.25,88.5,88.5,0,0,1-57.88-29.15c-1.93-2.17-5.1,1-3.18,3.18Z"/><path d="M262.58,347c14.31-1.49,28.65,4.95,37.67,16.06a38.7,38.7,0,0,1,5.9,10.09,2.33,2.33,0,0,0,2.77,1.57,2.27,2.27,0,0,0,1.57-2.77,47.8,47.8,0,0,0-34.67-28.76,43.93,43.93,0,0,0-13.24-.69,2.31,2.31,0,0,0-2.25,2.25,2.27,2.27,0,0,0,2.25,2.25Z"/><path d="M308.22,373.17l-48.67,63.38-13.68,17.82a2.26,2.26,0,0,0,.8,3.08,2.31,2.31,0,0,0,3.08-.8l48.67-63.38,13.68-17.83a2.25,2.25,0,0,0-.8-3.07,2.31,2.31,0,0,0-3.08.8Z"/><path d="M246.93,459.54c11.74-.25,18.9-10.68,25.08-19.25,3-4.13,6.25-8.38,10.65-11.08a15.76,15.76,0,0,1,13.3-1.66,16.35,16.35,0,0,1,10.52,9.79c1,2.71,5.31,1.55,4.34-1.2-3.45-9.84-14.72-16-24.88-13.25-11.46,3.12-16.61,14.73-23.71,23-3.92,4.57-9,9-15.3,9.12-2.89.06-2.9,4.56,0,4.5Z"/><path d="M231.23,494.54l14.42-20.85a2.28,2.28,0,0,0-.81-3.08,2.3,2.3,0,0,0-3.08.81l-14.42,20.85a2.28,2.28,0,0,0,.81,3.08,2.3,2.3,0,0,0,3.08-.81Z"/><path d="M244.22,474.41c5.17,1.44,10.6.1,15.08-2.68,4.72-2.94,8.18-7.33,11.26-11.88,2.94-4.32,5.58-8.88,9.23-12.66,3.09-3.2,7.12-6.12,11.72-6.31,4-.17,8.83,1.55,10.34,5.64.62,1.7,3.14,2.38,4.11.54l4.58-8.66c1.35-2.55-2.53-4.83-3.89-2.27l-4.58,8.66,4.12.53a13.74,13.74,0,0,0-10.06-8.49A18.4,18.4,0,0,0,282,439.54c-9.6,6.15-13.2,17.45-21.07,25.2-4,3.94-9.82,6.92-15.51,5.33-2.8-.78-4,3.56-1.2,4.34Z"/><path d="M302.18,492.3l-6.73-28.42c-.35-1.48-1.26-3.76-.49-5.24.62-1.18,2.51-1.26,3.68-1.33,4.8-.29,9.62-.43,14.43-.65l29.3-1.31c4.67-.21,9.4-.65,14.08-.59a8.93,8.93,0,0,1,4.12.77c1.39.76,1.61,2.16,1.31,3.63a46.18,46.18,0,0,1-2.56,7.15L356.38,474l-6,15.5a2.25,2.25,0,0,0,4.34,1.2l5.79-15,2.86-7.41c.89-2.32,1.94-4.64,2.62-7a8.86,8.86,0,0,0-.5-7,7.82,7.82,0,0,0-4.51-3.33,17.13,17.13,0,0,0-5.57-.61c-2.54.06-5.07.22-7.61.33l-32.28,1.45-15.89.71a14.32,14.32,0,0,0-6.07,1.2,6.43,6.43,0,0,0-3.34,5.29c-.21,2.58.73,5.28,1.32,7.76l2.11,8.91,4.16,17.57c.67,2.82,5,1.63,4.34-1.19Z"/><path d="M296,491.87c-2.92-2.48-7.53-2.56-10.15.46a7.24,7.24,0,0,0,.83,10.17c3.2,2.6,7.69,2.16,11.55,2.14l14.63-.11,29-.21c4.63,0,9.33.18,13.95-.22,4.12-.36,8.34-1.56,11.05-4.9s3.47-8,.38-11.31c-2.61-2.76-7.21-3.49-10-.69-2.06,2,1.12,5.22,3.18,3.18a1.8,1.8,0,0,1,1.86-.4,3.6,3.6,0,0,1,2.09,1.43c1.36,2-.36,4.65-1.94,5.95-2.45,2-5.91,2.28-8.94,2.37-3.69.1-7.39.06-11.08.09q-23.29.17-46.6.33c-2.17,0-6.6.34-7.09-2.62a2.58,2.58,0,0,1,4.16-2.48,2.3,2.3,0,0,0,3.18,0,2.26,2.26,0,0,0,0-3.18Z"/><path d="M306.57,496l35.87-1.18c2.89-.1,2.9-4.6,0-4.5l-35.87,1.18c-2.89.09-2.9,4.59,0,4.5Z"/><path d="M300.11,507c-1.83,5-3.67,10.18-3.61,15.59a18,18,0,0,0,5.4,13.2c3.33,3.07,7.7,4.77,12.05,5.78a71.92,71.92,0,0,0,15.81,1.74,77.63,77.63,0,0,0,18.72-2.23c2.82-.68,1.63-5-1.19-4.34a72,72,0,0,1-29.69,1,28.6,28.6,0,0,1-11-3.9,12.83,12.83,0,0,1-5.6-10c-.39-5.43,1.56-10.63,3.4-15.65a2.28,2.28,0,0,0-1.57-2.77,2.31,2.31,0,0,0-2.77,1.57Z"/><path d="M358.17,509.88a14.56,14.56,0,0,1-9.05,19.92c-2.77.83-1.59,5.17,1.2,4.34a18.88,18.88,0,0,0,11.74-26.53,2.28,2.28,0,0,0-3.08-.81,2.3,2.3,0,0,0-.81,3.08Z"/><path d="M367,518.19a5.62,5.62,0,0,1,.73-.22c-.53.11,0,0,.13,0s.25,0,0,0a2.33,2.33,0,0,1,.36.08c.18.05.51.2.16,0,.23.11.44.24.66.37.42.25-.15-.2.16.13.18.18.37.36.54.56-.3-.35,0,.09.1.18s.4.8.21.33a2.81,2.81,0,0,1,.18.56,2.33,2.33,0,0,1,.08.38c0-.28,0-.29,0,0s0,.4,0,.61c0-.5-.06.29-.09.4a5.62,5.62,0,0,1-.19.58c.16-.44-.16.3-.2.39s-.25.4-.39.6-.08.12,0,0a3.82,3.82,0,0,1-.27.32,6.26,6.26,0,0,1-.51.52c-.18.17-.36.34-.55.49.33-.26-.25.16-.32.2a9,9,0,0,1-1.29.71l.05,0-.49.17c-.29.1-.58.18-.87.26a25.86,25.86,0,0,1-7.09.42,2.25,2.25,0,1,0,0,4.5c4.76.14,9.75,0,13.51-3.33a9.13,9.13,0,0,0,3.06-5.37,7.36,7.36,0,0,0-2-6.31,6.48,6.48,0,0,0-6.81-1.83,2.31,2.31,0,0,0-1.57,2.77,2.28,2.28,0,0,0,2.77,1.57Z"/><path d="M365.82,513.83a4.63,4.63,0,0,1,5.09-.73,5.54,5.54,0,0,1,3.21,4.84c.33,5.49-4.43,9.06-9.28,10.28-3.73.94-7.65.71-11.45.41a2.27,2.27,0,0,0-2.25,2.25,2.29,2.29,0,0,0,2.25,2.25c7.58.61,16.47.29,21.88-5.92a13,13,0,0,0,3.29-9.9,10,10,0,0,0-5.52-8.15,9.25,9.25,0,0,0-10.4,1.48c-2.06,2,1.12,5.23,3.18,3.19Z"/><path d="M314.58,540.43a5.28,5.28,0,0,0-7.88,1.1,2.27,2.27,0,0,0,.36,2.73,34.35,34.35,0,0,0,41.74,2.86,35.43,35.43,0,0,0,4.69-3.78,30.42,30.42,0,0,0,2.13-2.27,5.92,5.92,0,0,0,1-1.33,2.93,2.93,0,0,0-.21-2.35,2.31,2.31,0,0,0-2.77-1.57,2.27,2.27,0,0,0-1.57,2.77l.33.88.58-2.19a29.5,29.5,0,0,1-42.7,3.8l.35,2.72a.76.76,0,0,1,.81-.19,2.31,2.31,0,0,0,3.18,0,2.26,2.26,0,0,0,0-3.18Z"/><path d="M130.38,551.05l6.26-59.1,1.78-16.88a2.26,2.26,0,0,0-2.25-2.25,2.3,2.3,0,0,0-2.25,2.25l-6.25,59.1-1.79,16.88a2.27,2.27,0,0,0,2.25,2.25,2.3,2.3,0,0,0,2.25-2.25Z"/><path d="M384.28,228.61l21,18.86c2.15,1.93,5.34-1.24,3.18-3.18l-21-18.86c-2.15-1.93-5.34,1.24-3.18,3.18Z"/><path class="cls-1" d="M438.77,280.9C449,300,458,319,468,339c2,4,2,8,3,11,9,16,13,33,17,51,1,3,0,6-1,9-5,13-17,18-29,24-16,7-34,11-51.12,14.08"/><path d="M392.69,374.11q5.67,34.09,8.75,68.56T405,512.05q.27,19.53-.29,39c-.08,2.9,4.42,2.9,4.5,0q1-34.86-.65-69.72t-5.91-69.46q-2.42-19.56-5.64-39a2.26,2.26,0,0,0-2.77-1.57,2.31,2.31,0,0,0-1.57,2.77Z"/><path class="cls-2" d="M110.12,556.09,536,555.76"/><path d="M442.83,441.34a437.61,437.61,0,0,1,1,82.45q-.94,11.54-2.52,23a2.33,2.33,0,0,0,1.57,2.77,2.27,2.27,0,0,0,2.77-1.57,441.23,441.23,0,0,0,3.56-83.23q-.63-11.75-1.88-23.44a2.31,2.31,0,0,0-2.25-2.25,2.27,2.27,0,0,0-2.25,2.25Z"/><path d="M313.56,445.88l9.25,6.9a2.28,2.28,0,0,0,1.73.23,2.26,2.26,0,0,0,1.58-2.77,2.67,2.67,0,0,0-1-1.35l-9.25-6.9a2.29,2.29,0,0,0-1.74-.22,2.27,2.27,0,0,0-1.34,1,2.23,2.23,0,0,0-.23,1.73,2.58,2.58,0,0,0,1,1.35Z"/><path d="M306.25,447.73l5.39,5.39a2.25,2.25,0,0,0,3.18-3.18l-5.39-5.39a2.25,2.25,0,0,0-3.18,3.18Z"/><path d="M340,426.47c6.64-11.37,8.17-25.27,5-38a49.52,49.52,0,0,0-8.14-17.37,62.62,62.62,0,0,0-6.74-7.45,50,50,0,0,1-6.53-7,12.69,12.69,0,0,1-2.62-8.35,13.39,13.39,0,0,1,4-7.91c5.17-5.36,12.66-6.74,19.73-7.76s14.41-1.88,20.79-5.51a22.07,22.07,0,0,0,7.55-6.92,24.23,24.23,0,0,0,3.54-10.38c1-7.49-.68-15.1.54-22.56a16.9,16.9,0,0,1,3.94-9.06,11.66,11.66,0,0,1,7.24-3.83,7.09,7.09,0,0,1,3.82.71c2.58,1.31,4.86-2.57,2.28-3.88-6.27-3.18-13.52-.13-17.61,5.11-4.91,6.28-4.73,14.79-4.45,22.34.25,6.88.65,15-4.18,20.6-4.47,5.16-11.49,7-18,8.07-7.85,1.28-16.27,1.67-23.27,5.85-5.75,3.42-10.74,9.55-10.46,16.57.29,7.22,5.63,12.43,10.5,17.13a48.58,48.58,0,0,1,11.33,15.71c5,11.62,5.3,25.68.1,37.3a45.4,45.4,0,0,1-2.23,4.33c-1.46,2.5,2.43,4.77,3.89,2.27Z"/><path d="M398,267.64c7.73.16,14.45-4.77,18.32-11.18,4.71-7.8,4.59-17.25,2.65-25.87-3.7-16.39-15.79-33.31-9.21-50.53a19.61,19.61,0,0,1,6.05-8.42c3.36-2.63,7.62-3.75,11.2-6s6.48-5.49,7-9.66c.55-4.49-2.33-7.93-4.58-11.48-4.16-6.59-4.79-14.78-2.87-22.23A37.37,37.37,0,0,1,439.32,103C453.2,91.48,471.92,89.1,489.26,88c2.39-.14,4.77-.27,7.16-.39,2.88-.16,2.9-4.66,0-4.5-18.25,1-37.39,2.11-53.45,11.78-6.9,4.17-13.12,9.87-17.09,17a37.52,37.52,0,0,0-4.48,23.65,29.16,29.16,0,0,0,4.12,11.26c1.87,3,5.12,6.31,3.66,10.1s-5.5,5.6-8.85,7.16c-3.81,1.76-7.46,3.64-10.25,6.86-5,5.76-7,13.68-6.72,21.2.36,9.34,4,18.11,7.19,26.75s6.44,18.09,4.8,27.39c-1.21,6.84-5.66,13.85-12.51,16.16a14.07,14.07,0,0,1-4.86.74c-2.89-.07-2.89,4.43,0,4.5Z"/><path d="M504.93,87.23c11.25-.35,22.83-.3,33.52,3.66,8.75,3.24,16.84,9.94,20.14,18.87a22,22,0,0,1,.77,13.43,27.79,27.79,0,0,1-7.43,12.3,46,46,0,0,1-13.08,8.8c-4.88,2.31-10.08,3.74-15,5.84-4,1.7-8.07,4.22-9.55,8.54-1.69,4.94,1.35,10.09,5.65,12.51,5.1,2.87,11.31,2.17,16.85,1.43,6-.81,12-2.13,18-2.86,9.58-1.17,19.9-.65,27.63,5.87a17.26,17.26,0,0,1,6.24,10.13,16.61,16.61,0,0,1-2.75,11.73c-5.27,8.28-14.76,13.16-23.22,17.5a223.27,223.27,0,0,1-32.57,13.55q-4.17,1.35-8.37,2.55c-1.69.48-2.4,3.31-.54,4.11,6.34,2.74,8.5,10.55,6.49,16.79-2.49,7.75-10.86,12.13-18.35,13.57-10.58,2-21.45-.69-32-1.69-9.67-.91-19.45-.24-28.06,4.65A39.17,39.17,0,0,0,431.57,290c-.92,2.76,3.42,3.94,4.34,1.2a34.46,34.46,0,0,1,15.52-18.72c8.76-5,18.77-5,28.54-3.85,10.84,1.24,22,3.58,32.79.76,8.28-2.16,16.45-7.63,19.25-16.07,2.66-8-.37-18.5-8.51-22l-.53,4.11a232,232,0,0,0,34.15-12.72c5.41-2.52,10.78-5.2,15.94-8.2a60.2,60.2,0,0,0,11.85-8.77,28.08,28.08,0,0,0,7.7-12.12A19.69,19.69,0,0,0,591.52,180c-3.85-8.37-13.31-13.45-22.1-14.79-12.34-1.87-24.44,2.28-36.64,3.39-4.81.44-11.23.44-13.83-4.5-2.14-4.06,1.47-7.22,4.77-8.95a45.75,45.75,0,0,1,6.27-2.5c2.81-1,5.6-2,8.33-3.19A56.39,56.39,0,0,0,553,140.67c7.93-6.8,13-16.84,11.22-27.41C562.55,103.42,555.36,95,547,90c-10-5.93-22-7.28-33.35-7.37-2.9,0-5.79,0-8.68.13s-2.9,4.59,0,4.5Z"/><path d="M429.35,295l-7.68,21.25c-2.14,5.91-3.85,12.71-8.41,17.29-7.7,7.72-20,7.6-30.08,8.76s-21.93,4-27.56,13.38c-7,11.67.84,24.54.67,36.8-.17,11.93-7.86,23.7-18.9,28.36a2.32,2.32,0,0,0-1.58,2.76,2.27,2.27,0,0,0,2.77,1.58,36.72,36.72,0,0,0,21.28-25.27c1.44-6.16.87-12.2-.38-18.33s-3.27-12.68-1.84-18.92c2.48-10.82,14.42-14.34,24.08-15.68,10.84-1.5,23-1.09,32.14-8a24.25,24.25,0,0,0,6.73-7.86A78.52,78.52,0,0,0,425,320.2l8.69-24a2.27,2.27,0,0,0-1.57-2.77,2.31,2.31,0,0,0-2.77,1.57Z"/><path d="M297.74,121.56a17,17,0,0,1,16.52,2.16,2.27,2.27,0,0,0,3.08-.81,2.3,2.3,0,0,0-.81-3.08,21.18,21.18,0,0,0-20-2.6A2.3,2.3,0,0,0,295,120a2.26,2.26,0,0,0,2.77,1.57Z"/><path d="M265.48,120.39a36.39,36.39,0,0,0-26.4,3.49c-2.54,1.41-.27,5.3,2.27,3.89a31.65,31.65,0,0,1,22.94-3c2.81.7,4-3.64,1.19-4.34Z"/></svg>